<svg xmlns="http://www.w3.org/2000/svg" width="512" height="244" viewBox="0 0 512 244"><path fill="#5f6368" d="M211.59 122c0-19.12-12.74-32.32-32.38-32.32-20.27 0-32.38 13.2-32.38 32.32 0 18.85 12.1 32.32 32.38 32.32 20.26 0 32.38-12.83 32.38-32.32zm-53.75 0c0-11.85 7.16-19.12 21.37-19.12 14.2 0 21.36 7.27 21.36 19.12 0 11.86-7.16 19.13-21.36 19.13-14.21 0-21.37-7.27-21.37-19.13z"/><path fill="#5f6368" d="M269.83 122c0-19.12-12.74-32.32-32.38-32.32-20.26 0-32.38 13.2-32.38 32.32 0 18.85 12.11 32.32 32.38 32.32 20.26 0 32.38-12.83 32.38-32.32zm-53.76 0c0-11.85 7.16-19.12 21.38-19.12 14.2 0 21.36 7.27 21.36 19.12 0 11.86-7.16 19.13-21.36 19.13-14.22 0-21.38-7.27-21.38-19.13z"/><path fill="#5f6368" d="M326.33 90.79h-11.13v59.62h11.13V90.79z"/><path fill="#5f6368" d="M375.43 90.79h-11.13v59.62h11.13V90.79z"/><path fill="#5f6368" d="M433.09 122c0-19.12-12.74-32.32-32.38-32.32-20.27 0-32.38 13.2-32.38 32.32 0 18.85 12.11 32.32 32.38 32.32 20.27 0 32.38-12.83 32.38-32.32zm-53.75 0c0-11.85 7.16-19.12 21.37-19.12 14.21 0 21.37 7.27 21.37 19.12 0 11.86-7.16 19.13-21.37 19.13-14.21 0-21.37-7.27-21.37-19.13z"/><path fill="#5f6368" d="M480.93 90.79h-18.06l-18.5 25.43-1.63-2.93V90.79h-11.14v59.62h11.14v-31.5l19.5-27.57 1.56 2.5v56.57h11.13V90.79z"/><path fill="#ea4335" d="M129.2 110.45c0-10.74-9.33-17.48-21.1-17.48-6.19 0-11.2 2.2-14.73 6.13l6.06 5.86c2.4-2.54 5.3-3.9 8.67-3.9 5.37 0 9.4 3.07 9.4 8.42v.63h-18.13c-11.2 0-18.9 7.6-18.9 17.8 0 9.8 7.33 17.47 18.26 17.47 9.8 0 15.6-5.8 16.53-13.8h-11.2c-1.14 4-4.2 6.6-8.2 6.6-4.8 0-7.8-2.73-8.47-6.8h19.8c.2-1.6.33-3.07.33-4.8v-1.7zm-29.33 9.4c1-4.4 3.8-7.33 8.33-7.33 4.2 0 7.33 2.8 8.27 7.33H99.87z"/><path fill="#fbbc05" d="M72.03 147.4h11.13V90.8h-11.13v56.6z"/><path fill="#34a853" d="M29.97 147.4h11.2l31.5-47.8v47.8h11.13V90.8H72.6l-31.5 47.73V90.8H29.97v56.6z"/><path fill="#4285f4" d="m118.03 89.27-8.93 8.33c-4.6-3.73-10.2-6.13-17.07-6.13-16.2 0-27.53 12.27-27.53 28.93 0 16.53 11.2 28.93 28.13 28.93 6.8 0 12.33-2.2 16.53-5.8l9.2 8.53c-5.6 4.8-14.2 7.8-25.73 7.8-24.13 0-40-16.6-40-41.46 0-23.87 15.86-41.47 39.46-41.47 10.6 0 19.2 2.8 25.54 8.34z"/></svg> 