<svg xmlns="http://www.w3.org/2000/svg" width="24" height="24" viewBox="0 0 24 24" fill="none" stroke="currentColor" stroke-width="2" stroke-linecap="round" stroke-linejoin="round" class="h-6 w-6"><path d="M11.33 4.25a2.25 2.25 0 0 0-2.05 3.3l.05.08a2.25 2.25 0 0 0 3.3-2.05l-.08-.05a2.25 2.25 0 0 0-1.22-1.28ZM12 11.75a2.25 2.25 0 1 0 0 4.5 2.25 2.25 0 0 0 0-4.5ZM12.67 4.25a2.25 2.25 0 0 1 2.05 3.3l-.05.08a2.25 2.25 0 0 1-3.3-2.05l.08-.05a2.25 2.25 0 0 1 1.22-1.28Z"></path><path d="M17.25 11.33a2.25 2.25 0 0 0-2.05-3.3l.05-.08a2.25 2.25 0 0 0 3.3 2.05l-.08.05a2.25 2.25 0 0 0-1.22 1.28ZM8.25 12.67a2.25 2.25 0 0 1 2.05-3.3l-.05-.08a2.25 2.25 0 0 1-3.3 2.05l.08.05a2.25 2.25 0 0 1 1.22 1.28ZM11.75 12a2.25 2.25 0 1 1 4.5 0 2.25 2.25 0 0 1-4.5 0ZM12 8.25a2.25 2.25 0 1 0 0-4.5 2.25 2.25 0 0 0 0 4.5ZM7.58 8.42a2.25 2.25 0 0 1-1.16-4.17 2.25 2.25 0 0 1 4.17 1.16l-.08.05a2.25 2.25 0 0 1-2.93 2.96Z"></path><path d="M4.25 11.33a2.25 2.25 0 0 0 3.3 2.05l-.08.05a2.25 2.25 0 0 0-2.05-3.3l.05-.08a2.25 2.25 0 0 0-1.22 1.28ZM12 17.25a2.25 2.25 0 1 1 0 4.5 2.25 2.25 0 0 1 0-4.5ZM15.58 16.75a2.25 2.25 0 1 0-1.16-4.17 2.25 2.25 0 0 0 1.16 4.17Z"></path></svg> 